# WaveFront *.obj file (generated by CINEMA 4D)

mtllib ./CerealModel.mtl

v -8.45450019836426 0.00000000000000 -2.31629991531372
v 8.45450019836426 0.00000000000000 -2.31629991531372
v -8.45450019836426 0.00000000000000 2.31629991531372
v 8.45450019836426 0.00000000000000 2.31629991531372
v -8.45450019836426 23.09480094909668 -2.31900000572205
v 8.45450019836426 23.09480094909668 -2.31900000572205
v -8.45450019836426 23.07049942016602 2.31629991531372
v 8.45450019836426 23.07049942016602 2.31629991531372
v 8.45450019836426 23.26250076293945 0.11850000172853
v -8.45450019836426 23.26250076293945 0.11850000172853
v 8.45450019836426 22.77169990539551 -2.31629991531372
v -8.45450019836426 22.77169990539551 -2.31629991531372
v 8.45450019836426 22.77169990539551 2.31629991531372
v -8.45450019836426 22.77169990539551 2.31629991531372
v -8.45450019836426 23.15430068969727 1.21879994869232
v 8.45450019836426 23.15430068969727 1.21879994869232
v 2.31629991531372 23.28680038452148 0.11580000072718
v -2.31629991531372 23.15430068969727 1.21879994869232
v -2.31629991531372 23.28680038452148 0.11580000072718
v 2.31629991531372 23.15430068969727 1.21879994869232
v 0.00000000000000 23.28680038452148 0.11580000072718
v 0.00000000000000 23.15430068969727 1.47510004043579
v 8.45450019836426 23.20299911499023 1.21329998970032
v 2.31629991531372 23.20299911499023 1.21329998970032
v 0.00000000000000 23.20299911499023 1.46959996223450
v -2.31629991531372 23.20299911499023 1.21329998970032
v -8.45450019836426 23.20299911499023 1.21329998970032
# 27 vertices

vn 0.00000000000000 -1.00000000000000 0.00000000000000
vn 0.00000000000000 -0.00418746331707 -0.99999123811722
vn 0.00000000000000 0.00000000000000 -1.00000000000000
vn 1.00000000000000 0.00000000000000 0.00000000000000
vn 0.00000000000000 0.00000000000000 1.00000000000000
vn -1.00000000000000 0.00000000000000 0.00000000000000
vn 0.00237499037758 0.69377839565277 -0.72018462419510
vn 0.00437498791143 0.99709111452103 0.07609354704618
vn 0.00350003782660 0.99838578701019 0.05668811500072
vn 0.00309364404529 0.99996566772461 -0.00768723618239
vn 0.00000000000000 -0.00837470684201 -0.99996495246887
vn -0.00187513546553 0.99994730949402 -0.01009447965771
vn -0.00218741572462 0.99996149539948 -0.00849967263639
vn -0.00350003782660 0.99838578701019 0.05668811500072
vn -0.00118749926332 0.99728065729141 0.07368745654821
vn -0.00218740291893 0.99795567989349 0.06387216597795
vn -0.00187504675705 0.69020467996597 -0.72361177206039
vn 0.00000000000000 0.11088085174561 0.99383372068405
vn 0.10928230732679 0.11018856614828 0.98788452148438
vn -0.10928230732679 0.11018856614828 0.98788452148438
vn 0.00168757664505 0.99754536151886 -0.07000317424536
vn 0.00000000000000 0.99764442443848 -0.06859723478556
vn 0.00000000000000 0.99710065126419 0.07609427720308
vn 0.00359366601333 0.99116438627243 0.13259065151215
vn -0.00018749994342 0.99709349870682 0.07618748396635
vn -0.00487507926300 0.99879753589630 0.04878204688430
vn 0.00009375064110 0.99710065126419 0.07609427720308
vn 0.00000000000000 1.00000000000000 0.00000000000000
# 28 normals

vt 0.32089999318123 0.93299996852875 0.00000000000000
vt 0.32089999318123 0.85239994525909 0.00000000000000
vt 0.02659999951720 0.85239994525909 0.00000000000000
vt 0.02659999951720 0.93299996852875 0.00000000000000
vt 0.47670000791550 0.42210000753403 0.00000000000000
vt 0.76959997415543 0.42199999094009 0.00000000000000
vt 0.76910001039505 0.02930000051856 0.00000000000000
vt 0.47659999132156 0.02919999882579 0.00000000000000
vt 0.84950000047684 0.42189997434616 0.00000000000000
vt 0.84930002689362 0.02919999882579 0.00000000000000
vt 0.10149999707937 0.42179995775223 0.00000000000000
vt 0.39440000057220 0.42189997434616 0.00000000000000
vt 0.39440000057220 0.02910000085831 0.00000000000000
vt 0.10149999707937 0.02910000085831 0.00000000000000
vt 0.21819999814034 0.53020000457764 0.00000000000000
vt 0.21819999814034 0.54939997196198 0.00000000000000
vt 0.32510000467300 0.54939997196198 0.00000000000000
vt 0.32510000467300 0.53030002117157 0.00000000000000
vt 0.47670000791550 0.42619997262955 0.00000000000000
vt 0.76950001716614 0.42699998617172 0.00000000000000
vt 0.10149999707937 0.42680001258850 0.00000000000000
vt 0.39440000057220 0.42710000276566 0.00000000000000
vt 0.13740000128746 0.53020000457764 0.00000000000000
vt 0.03040000051260 0.53030002117157 0.00000000000000
vt 0.03040000051260 0.54939997196198 0.00000000000000
vt 0.13740000128746 0.54939997196198 0.00000000000000
vt 0.17779999971390 0.55379998683929 0.00000000000000
vt 0.17779999971390 0.53020000457764 0.00000000000000
vt 0.03759999945760 0.62559998035431 0.00000000000000
vt 0.03759999945760 0.62469995021820 0.00000000000000
vt 0.01879999972880 0.62870001792908 0.00000000000000
vt 0.14440000057220 0.62589991092682 0.00000000000000
vt 0.14440000057220 0.62500000000000 0.00000000000000
vt 0.18500000238419 0.62549996376038 0.00000000000000
vt 0.18500000238419 0.62469995021820 0.00000000000000
vt 0.22560000419617 0.62609994411469 0.00000000000000
vt 0.22560000419617 0.62529993057251 0.00000000000000
vt 0.33239999413490 0.62639999389648 0.00000000000000
vt 0.33239999413490 0.62559998035431 0.00000000000000
vt 0.35120001435280 0.62959992885590 0.00000000000000
vt 0.32510000467300 0.49110001325607 0.00000000000000
vt 0.03040000051260 0.49110001325607 0.00000000000000
vt 0.81190001964569 0.43089997768402 0.00000000000000
vt 0.83109998703003 0.42909997701645 0.00000000000000
vt 0.85009998083115 0.42729997634888 0.00000000000000
vt 0.43270000815392 0.42960000038147 0.00000000000000
vt 0.41350001096725 0.42869997024536 0.00000000000000
vt 0.32359999418259 0.76230001449585 0.00000000000000
vt 0.17640000581741 0.74930000305176 0.00000000000000
vt 0.02930000051856 0.76230001449585 0.00000000000000
vt 0.13609999418259 0.74309992790222 0.00000000000000
vt 0.02930000051856 0.74319994449615 0.00000000000000
vt 0.32359999418259 0.74319994449615 0.00000000000000
vt 0.21670000255108 0.74309992790222 0.00000000000000
# 54 texture coordinates

o Mr_SaturnRings
usemtl Mat
f 2/4/1 4/3/1 3/2/1 1/1/1
f 12/8/2 11/7/2 2/6/3 1/5/3
f 11/7/4 13/10/4 4/9/4 2/6/4
f 13/14/5 14/13/5 3/12/5 4/11/5
f 14/13/6 12/8/6 1/5/6 3/12/6
f 17/18/7 24/17/8 23/16/9 9/15/10
f 12/6/2 5/20/11 6/19/11 11/5/2
f 13/12/5 8/22/5 7/21/5 14/11/5
f 19/26/12 10/25/13 27/24/14 26/23/15
f 25/28/16 24/15/8 17/16/7 21/27/17
f 19/28/12 26/27/15 25/26/16 21/23/17
f 23/31/4 16/31/4 9/30/4
f 23/30/18 24/33/18 20/32/18 16/29/18
f 24/33/19 25/35/19 22/34/19 20/32/19
f 25/35/20 26/37/20 18/36/20 22/34/20
f 26/37/18 27/39/18 15/38/18 18/36/18
f 27/39/6 10/39/6 15/40/6
f 10/42/7 19/23/10 21/24/21 17/41/21 9/41/13 6/18/12 5/15/22
f 1 1 1
f 1 1 1
f 1 1 1
f 8/9/4 13/45/4 11/44/4 6/44/4 9/43/4 16/9/4
f 1 1 1
f 1 1 1
f 14/47/6 7/12/6 15/19/6 10/46/6 5/12/6 12/5/6
f 1 1 1
f 1 1 1
f 8/51/23 16/49/24 20/50/25 22/50/25 18/50/25 15/49/24 7/48/26
f 1 1 1
f 1 1 1

